# xmcd CD database file
#
# Track frame offsets:
#	182
#	23117
#	49020
#	78405
#	100732
#
# Disc length: 1560 seconds
#
# Revision: 0
# Processed by: cddbd v1.5.2PL0 Copyright (c) Steve Scherf et al.
# Submitted via: CDex 2.07
#
DISCID=30061605
DTITLE=Eddy GUSTAVE - MERENGUES
DYEAR=1996
DGENRE=Merengue
TTITLE0=A Bailar - Merengue
TTITLE1=Merengue Harengue
TTITLE2=Celedonio
TTITLE3=Juanita - Morel
TTITLE4=Hora de Carnaval
EXTD=YEAR: 1996
EXTT0=
EXTT1=
EXTT2=
EXTT3=
EXTT4=
PLAYORDER=
